<svg xmlns="http://www.w3.org/2000/svg" viewBox="0 0 16.85 16.85"><defs><style>.cls-1{fill:#fff;}</style></defs><title>Icon_BigData</title><g id="Layer_2" data-name="Layer 2"><g id="Layer_1-2" data-name="Layer 1"><path class="cls-1" d="M1.3,15.56V11.67H3.89v2.59h1.3V8.43H7.78v5.83h1.3V5.19h2.59v9.07H13V1.3h2.59v13h1.3V.33A.33.33,0,0,0,16.53,0H12a.33.33,0,0,0-.32.33V3.89H8.1a.33.33,0,0,0-.32.32V7.13H4.21a.32.32,0,0,0-.33.32v2.92H.32a.33.33,0,0,0-.32.32v5.83a.33.33,0,0,0,.32.32h16.2a.33.33,0,0,0,.32-.32v-1Z"/></g></g></svg>