<svg xmlns="http://www.w3.org/2000/svg" viewBox="0 0 19.28 18.44"><defs><style>.cls-1{fill:#fff;}</style></defs><title>Icon_IoT</title><g id="Layer_2" data-name="Layer 2"><g id="Layer_1-2" data-name="Layer 1"><path class="cls-1" d="M17.9,6.79H1.38v-1L9.64,1.46,17.9,5.74ZM3.51,1.49H5.11v.76l-1.61.83ZM19,4.75,9.94.07a.75.75,0,0,0-.61,0L6.49,1.54V.8A.69.69,0,0,0,5.8.11h-3A.69.69,0,0,0,2.13.8v3L.31,4.75a.62.62,0,0,0-.31.5V7.82a.35.35,0,0,0,.34.34H2.13v9.58a.69.69,0,0,0,.69.69H16.46a.69.69,0,0,0,.69-.69V9.55H15.77v7.51H8.12V12.27h3v3.36h1.38v-4a.69.69,0,0,0-.69-.69H7.43a.69.69,0,0,0-.69.69v5.48H3.51V8.17H18.93a.35.35,0,0,0,.35-.34V5.25a.62.62,0,0,0-.31-.5"/></g></g></svg>