<svg id="Logo_SR" xmlns="http://www.w3.org/2000/svg" width="61" height="18" viewBox="0 0 61 18">
  <metadata><?xpacket begin="﻿" id="W5M0MpCehiHzreSzNTczkc9d"?>
<x:xmpmeta xmlns:x="adobe:ns:meta/" x:xmptk="Adobe XMP Core 5.6-c138 79.159824, 2016/09/14-01:09:01        ">
   <rdf:RDF xmlns:rdf="http://www.w3.org/1999/02/22-rdf-syntax-ns#">
      <rdf:Description rdf:about=""/>
   </rdf:RDF>
</x:xmpmeta>
                                                                                                    
                                                                                                    
                                                                                                    
                                                                                                    
                                                                                                    
                                                                                                    
                                                                                                    
                                                                                                    
                                                                                                    
                                                                                                    
                                                                                                    
                                                                                                    
                                                                                                    
                                                                                                    
                                                                                                    
                                                                                                    
                                                                                                    
                                                                                                    
                                                                                                    
                                                                                                    
                           
<?xpacket end="w"?></metadata>
<defs>
    <style>
      .cls-1 {
        fill: #19191e;
      }

      .cls-1, .cls-2 {
        fill-rule: evenodd;
      }

      .cls-2 {
        fill: #0030ff;
      }
    </style>
  </defs>
  <path id="S" class="cls-1" d="M926,20108.2l1.884-2.2a8.086,8.086,0,0,0,5.626,2.3c1.934,0,3.156-.9,3.156-2.2v-0.1c0-1.2-.712-1.9-4.022-2.6-3.793-.9-5.931-2-5.931-5.3h0c0-3,2.545-5.1,6.084-5.1a10.129,10.129,0,0,1,6.466,2.2l-1.68,2.3a8.713,8.713,0,0,0-4.836-1.8c-1.834,0-2.9,1-2.9,2.1v0.1c0,1.3.814,1.9,4.226,2.7,3.767,0.9,5.728,2.2,5.728,5.1v0.1c0,3.3-2.623,5.2-6.364,5.2a10.972,10.972,0,0,1-7.434-2.8" transform="translate(-926 -20093)"/>
  <path id="R" class="cls-1" d="M948.179,20093.3h7.943a7.247,7.247,0,0,1,5.143,1.7,5.43,5.43,0,0,1,1.475,3.8v0.1c0,2.8-1.756,4.5-4.252,5.2l4.811,6.7h-3.69l-4.379-6.1h-3.921v6.1h-3.13v-17.5Zm7.714,8.6c2.24,0,3.665-1.1,3.665-2.9h0c0-1.9-1.375-2.9-3.69-2.9h-4.559v5.8h4.584Z" transform="translate(-926 -20093)"/>
  <path id="Cursor" class="cls-2" d="M974.022,20110.5H987v-2.3H974.022v2.3Z" transform="translate(-926 -20093)"/>
</svg>
