<svg xmlns="http://www.w3.org/2000/svg" viewBox="0 0 12.96 19.44"><defs><style>.cls-1{fill:#fff;}</style></defs><title>Icon_Mobile</title><g id="Layer_2" data-name="Layer 2"><g id="Layer_1-2" data-name="Layer 1"><path class="cls-1" d="M8.5,8l-2,1-2-1,2-1Zm-1.37,4.2V10.1l1.94-1v2.06Zm-3.24-3,1.94,1v2l-1.94-1Zm2.59,4.79L10.37,12V7.45L6.48,5.51,2.59,7.45V12Z"/><path class="cls-1" d="M1.3,4.54H11.67V14.91H1.3Zm0-2.27a1,1,0,0,1,1-1h8.43a1,1,0,0,1,1,1v1H1.3ZM11.61,17.5a1,1,0,0,1-.91.65H2.27a1,1,0,0,1-1-1v-1H13V2.27A2.28,2.28,0,0,0,10.69,0H2.27A2.28,2.28,0,0,0,0,2.27V17.18a2.27,2.27,0,0,0,2.27,2.27h8.43a2.27,2.27,0,0,0,2.24-1.94Z"/></g></g></svg>