<svg xmlns="http://www.w3.org/2000/svg" viewBox="0 0 217.03 83.09"><defs><style>.cls-1{fill:#19191e;}.cls-2{fill:#0030ff;}</style></defs><title>LogoLockup-FS</title><g id="Layer_2" data-name="Layer 2"><g id="Logos"><path class="cls-1" d="M1,15.43,2.91,13.2a8.18,8.18,0,0,0,5.61,2.31c1.93,0,3.15-.89,3.15-2.23v-.05c0-1.27-.71-2-4-2.72-3.78-.91-5.91-2-5.91-5.3V5.15C1.74,2.11,4.28,0,7.8,0a9.85,9.85,0,0,1,6.45,2.23L12.58,4.59A8.07,8.07,0,0,0,7.75,2.77c-1.83,0-2.89.94-2.89,2.11v0c0,1.37.81,2,4.21,2.79,3.76.91,5.71,2.26,5.71,5.2v0c0,3.33-2.61,5.3-6.35,5.3A11,11,0,0,1,1,15.43"/><path class="cls-1" d="M29.79.13h2.89L40.5,18H37.2l-1.8-4.29H27L25.17,18H22ZM34.26,11,31.19,3.86l-3,7.11Z"/><path class="cls-1" d="M47.68.25h7c4.14,0,6.75,2.36,6.75,5.94v.05c0,4-3.2,6.07-7.11,6.07H50.81V18H47.68Zm6.75,9.24c2.36,0,3.83-1.32,3.83-3.17V6.27c0-2.08-1.5-3.17-3.83-3.17H50.81V9.49Z"/><rect class="cls-1" x="70.31" y="0.25" width="3.12" height="17.76"/><polygon class="cls-1" points="83.42 0.25 96.59 0.25 96.59 3.05 86.54 3.05 86.54 7.66 95.45 7.66 95.45 10.46 86.54 10.46 86.54 15.23 96.72 15.23 96.72 18.02 83.42 18.02 83.42 0.25"/><polygon class="cls-1" points="106.24 0.25 109.13 0.25 118.65 12.54 118.65 0.25 121.72 0.25 121.72 18.02 119.1 18.02 109.31 5.38 109.31 18.02 106.24 18.02 106.24 0.25"/><polygon class="cls-1" points="135.95 3.15 130.32 3.15 130.32 0.25 144.73 0.25 144.73 3.15 139.1 3.15 139.1 18.02 135.95 18.02 135.95 3.15"/><path class="cls-1" d="M1.21,29H9.12a7.16,7.16,0,0,1,5.13,1.78,5.37,5.37,0,0,1,1.47,3.83v.05a5.33,5.33,0,0,1-4.24,5.38l4.8,6.72H12.6L8.24,40.59H4.33v6.19H1.21ZM8.9,37.82c2.23,0,3.65-1.17,3.65-3V34.8c0-1.9-1.37-2.94-3.68-2.94H4.33v6Z"/><path class="cls-1" d="M29.74,28.89h2.89l7.82,17.89h-3.3l-1.8-4.29h-8.4l-1.83,4.29h-3.2Zm4.47,10.84-3.07-7.11-3,7.11Z"/><polygon class="cls-1" points="47.68 44.47 58.16 31.78 48.01 31.78 48.01 29.02 62.23 29.02 62.23 31.33 51.74 44.02 62.23 44.02 62.23 46.78 47.68 46.78 47.68 44.47"/><path class="cls-1" d="M69.65,37.95v0a9.29,9.29,0,0,1,18.58-.05v.05a9.29,9.29,0,0,1-18.58,0m15.3,0v0a6.09,6.09,0,0,0-6-6.32,6,6,0,0,0-6,6.27v.05a6.09,6.09,0,0,0,6,6.32,6,6,0,0,0,6-6.27"/><path class="cls-1" d="M96,29h7.92A7.16,7.16,0,0,1,109,30.79a5.37,5.37,0,0,1,1.47,3.83v.05a5.33,5.33,0,0,1-4.24,5.38l4.8,6.72h-3.68L103,40.59H99.11v6.19H96Zm7.69,8.81c2.23,0,3.65-1.17,3.65-3V34.8c0-1.9-1.37-2.94-3.68-2.94H99.11v6Z"/><polygon class="cls-1" points="120.43 29.02 133.65 29.02 133.65 31.86 123.55 31.86 123.55 36.71 132.51 36.71 132.51 39.55 123.55 39.55 123.55 46.78 120.43 46.78 120.43 29.02"/><rect class="cls-1" x="142.92" y="29.02" width="3.12" height="17.76"/><path class="cls-1" d="M154.84,44.19,156.72,42a8.18,8.18,0,0,0,5.61,2.31c1.93,0,3.15-.89,3.15-2.23V42c0-1.27-.71-2-4-2.72-3.78-.91-5.91-2-5.91-5.3v-.05c0-3,2.54-5.15,6.07-5.15A9.85,9.85,0,0,1,168.07,31l-1.68,2.36a8.07,8.07,0,0,0-4.82-1.83c-1.83,0-2.89.94-2.89,2.11v0c0,1.37.81,2,4.21,2.79,3.76.91,5.71,2.26,5.71,5.2v.05c0,3.32-2.61,5.3-6.35,5.3a10.94,10.94,0,0,1-7.41-2.84"/><polygon class="cls-1" points="177.52 29.02 180.64 29.02 180.64 36.4 189.12 36.4 189.12 29.02 192.24 29.02 192.24 46.78 189.12 46.78 189.12 39.3 180.64 39.3 180.64 46.78 177.52 46.78 177.52 29.02"/><rect class="cls-2" x="201.51" y="46.78" width="15.51" height="3.1"/><path class="cls-2" d="M11.15,71.86c-.23-.92-1.34-2.62-2.25-2.75A14.14,14.14,0,0,0,7.16,69H4.54v6.11H6.4a2.55,2.55,0,0,0,1.87-.65,3.83,3.83,0,0,0,.65-1.93h.57v5.9H8.92a4.76,4.76,0,0,0-.65-2.08,2.62,2.62,0,0,0-1.87-.65H4.54V81a1,1,0,0,0,.65,1,8.33,8.33,0,0,0,1.6.31v.46H0v-.46a9.75,9.75,0,0,0,1.66-.21,1,1,0,0,0,.65-1V70.33a1,1,0,0,0-.65-1A7,7,0,0,0,0,68.92v-.46H11.72v3.4Z"/><path class="cls-2" d="M12.7,82.8v-.42a3.84,3.84,0,0,0,.92-.15.91.91,0,0,0,.57-.94v-6a1.39,1.39,0,0,0-.57-1,3.18,3.18,0,0,0-1.24-.4v-.4L16,73.18l.15.15v7.83a1,1,0,0,0,.57,1,2.89,2.89,0,0,0,.92.25v.42ZM15,70.35a1.3,1.3,0,0,1-1.28-1.28A1.32,1.32,0,0,1,15,67.75,1.26,1.26,0,0,1,16.29,69,1.34,1.34,0,0,1,15,70.35Z"/><path class="cls-2" d="M25.14,82.8v-.42a4.41,4.41,0,0,0,1-.15.88.88,0,0,0,.57-.94V76.23C26.7,74.78,25.86,74,25,74a2.93,2.93,0,0,0-2.62,1.47v5.73a.94.94,0,0,0,.57.94,2.62,2.62,0,0,0,1,.25v.42h-5v-.42a3.84,3.84,0,0,0,.92-.15.88.88,0,0,0,.57-.94v-6a1.52,1.52,0,0,0-.57-1.11,2.21,2.21,0,0,0-1-.34v-.4l3.36-.23.15.15v1.43h0A4.39,4.39,0,0,1,25.77,73c2,0,2.86,1.32,2.86,3.32V81.2a.92.92,0,0,0,.55.94,2.46,2.46,0,0,0,.92.23v.42Z"/><path class="cls-2" d="M38.81,83A1.76,1.76,0,0,1,37,81.6H36.9a4.06,4.06,0,0,1-3.11,1.45,2.21,2.21,0,0,1-2.44-2.23,2.65,2.65,0,0,1,2.06-2.71,31.3,31.3,0,0,0,3.53-1.32V75.62c0-.38-.06-2.12-1.81-2.12a1.47,1.47,0,0,0-1.28.71c0,.31.19.78.19,1.24s-.46.9-1.22.9-.94-.54-.94-1.09C31.89,74,33.67,73,35.27,73c2.08,0,3.61.31,3.61,3.11,0,1.85-.1,4-.1,4.7,0,.31.29,1.07,1,1.07s.76-.82.82-1.62H41C40.91,82.25,40.12,83,38.81,83Zm-5.42-2.5c0,1.15.52,1.68,1.43,1.68a2.34,2.34,0,0,0,2.06-1.11L37,77.4C34.87,78.05,33.4,78.64,33.4,80.51Z"/><path class="cls-2" d="M48.12,82.8v-.42a4.41,4.41,0,0,0,1-.15.88.88,0,0,0,.57-.94V76.23c0-1.45-.84-2.25-1.74-2.25a2.93,2.93,0,0,0-2.62,1.47v5.73a.94.94,0,0,0,.57.94,2.62,2.62,0,0,0,1,.25v.42h-5v-.42a3.84,3.84,0,0,0,.92-.15.88.88,0,0,0,.57-.94v-6a1.52,1.52,0,0,0-.57-1.11,2.21,2.21,0,0,0-1-.34v-.4l3.36-.23.15.15v1.43h0A4.39,4.39,0,0,1,48.75,73c2,0,2.86,1.32,2.86,3.32V81.2a.92.92,0,0,0,.55.94,2.46,2.46,0,0,0,.92.23v.42Z"/><path class="cls-2" d="M58.48,83.05c-3,0-4.56-2.14-4.56-5a4.73,4.73,0,0,1,4.66-5c2.16,0,3.25,1.15,3.25,2.44a1,1,0,0,1-1.09,1.18,1.09,1.09,0,0,1-1.18-1.05c0-.88.27-.9.27-1.3-.1-.61-.52-.76-1.26-.76-1.24,0-2.54,1.11-2.54,4.28,0,2.46,1.09,4.3,2.94,4.3a3.11,3.11,0,0,0,3-1.87l.4.29A4.64,4.64,0,0,1,58.48,83.05Z"/><path class="cls-2" d="M63.15,82.8v-.42a3.84,3.84,0,0,0,.92-.15.91.91,0,0,0,.57-.94v-6a1.39,1.39,0,0,0-.57-1,3.18,3.18,0,0,0-1.24-.4v-.4l3.57-.23.15.15v7.83a1,1,0,0,0,.57,1,2.89,2.89,0,0,0,.92.25v.42Zm2.27-12.45a1.3,1.3,0,0,1-1.28-1.28,1.32,1.32,0,0,1,1.28-1.32A1.26,1.26,0,0,1,66.74,69,1.34,1.34,0,0,1,65.42,70.35Z"/><path class="cls-2" d="M76.73,83a1.76,1.76,0,0,1-1.85-1.41h-.06a4.06,4.06,0,0,1-3.11,1.45,2.21,2.21,0,0,1-2.44-2.23,2.65,2.65,0,0,1,2.06-2.71,31.3,31.3,0,0,0,3.53-1.32V75.62c0-.38-.06-2.12-1.81-2.12a1.47,1.47,0,0,0-1.28.71c0,.31.19.78.19,1.24s-.46.9-1.22.9-.94-.54-.94-1.09C69.81,74,71.59,73,73.19,73c2.08,0,3.61.31,3.61,3.11,0,1.85-.1,4-.1,4.7,0,.31.29,1.07,1,1.07s.76-.82.82-1.62H79C78.83,82.25,78,83,76.73,83Zm-5.42-2.5c0,1.15.52,1.68,1.43,1.68a2.34,2.34,0,0,0,2.06-1.11l.08-3.67C72.79,78.05,71.32,78.64,71.32,80.51Z"/><path class="cls-2" d="M79.75,82.8v-.42a3.84,3.84,0,0,0,.92-.15.88.88,0,0,0,.57-.94V69.38a1.63,1.63,0,0,0-.57-1.2,4.44,4.44,0,0,0-1.47-.42v-.4l3.8-.23.15.15V81.16a1,1,0,0,0,.57,1,2.22,2.22,0,0,0,.92.25v.42Z"/><path class="cls-2" d="M96.44,83.07A5.42,5.42,0,0,1,93,82l-.73,1h-.71L91.4,78.1h.48c.86,2.23,2.2,4.35,4.81,4.35a2.39,2.39,0,0,0,2.67-2.65A2.94,2.94,0,0,0,97.3,77c-1.2-.48-1.83-.71-3-1.24a3.75,3.75,0,0,1-2.48-3.74A4,4,0,0,1,96,68.19a5.35,5.35,0,0,1,3,1l.71-1h.71l.1,4.77h-.46c-.84-2.37-1.78-4.2-4.6-4.2a2.07,2.07,0,0,0-2,2.14,2.88,2.88,0,0,0,1.85,2.65c1,.57,1.91.76,2.86,1.22,1.81.82,3,1.66,3,3.88A4.42,4.42,0,0,1,96.44,83.07Z"/><path class="cls-2" d="M107.53,83.05c-3.17,0-4.64-2.31-4.64-5.08,0-2.52,1.62-4.93,4.41-4.93s3.93,1.89,3.93,4v.19H105v.23c0,2.71.88,4.64,3.13,4.64,1.64,0,2.16-.59,3-1.87l.38.25A4.34,4.34,0,0,1,107.53,83.05Zm-.25-9.53c-1.32,0-2.25,1.3-2.31,3.28l4.22,0C109.19,75.24,108.88,73.52,107.28,73.52Z"/><path class="cls-2" d="M118.8,75.68c-.67,0-1.13-.29-1.13-1,0-.21.15-.38.15-.65a2.62,2.62,0,0,0-2.1,1.37v5.79a.92.92,0,0,0,.57.94,4.87,4.87,0,0,0,1.36.25v.42h-5.33v-.42a3.84,3.84,0,0,0,.92-.15.88.88,0,0,0,.57-.94v-6a1.52,1.52,0,0,0-.57-1.11,2.21,2.21,0,0,0-1-.34v-.4l3.36-.23.15.15v1.43h0a3.8,3.8,0,0,1,2.83-1.68,1.37,1.37,0,0,1,1.32,1.28C119.91,75.09,119.51,75.68,118.8,75.68Z"/><path class="cls-2" d="M129.49,74.88c-.86,1.91-1.53,3.59-2.46,5.79a17.4,17.4,0,0,0-.82,2.27h-.73c-1.47-3.72-1.93-4.77-3.34-8.17a2,2,0,0,0-1.55-1v-.44h4.66v.48c-.48,0-1.2.1-1.2.44a2.28,2.28,0,0,0,.15.44c.4,1.07,1.45,3.63,2.31,5.82h.06c.8-1.91,1.43-3.34,2.23-5.42a1.82,1.82,0,0,0,.1-.59c0-.42-1.22-.71-1.55-.76v-.42h3.74v.4A2.62,2.62,0,0,0,129.49,74.88Z"/><path class="cls-2" d="M132.2,82.8v-.42a3.84,3.84,0,0,0,.92-.15.91.91,0,0,0,.57-.94v-6a1.39,1.39,0,0,0-.57-1,3.18,3.18,0,0,0-1.24-.4v-.4l3.57-.23.15.15v7.83a1,1,0,0,0,.57,1,2.89,2.89,0,0,0,.92.25v.42Zm2.27-12.45a1.3,1.3,0,0,1-1.28-1.28,1.32,1.32,0,0,1,1.28-1.32A1.26,1.26,0,0,1,135.79,69,1.34,1.34,0,0,1,134.47,70.35Z"/><path class="cls-2" d="M142.47,83.05c-3,0-4.56-2.14-4.56-5a4.73,4.73,0,0,1,4.66-5c2.16,0,3.25,1.15,3.25,2.44a1,1,0,0,1-1.09,1.18,1.09,1.09,0,0,1-1.18-1.05c0-.88.27-.9.27-1.3-.1-.61-.52-.76-1.26-.76-1.24,0-2.54,1.11-2.54,4.28,0,2.46,1.09,4.3,2.94,4.3a3.11,3.11,0,0,0,3-1.87l.4.29A4.64,4.64,0,0,1,142.47,83.05Z"/><path class="cls-2" d="M152,83.05c-3.17,0-4.64-2.31-4.64-5.08,0-2.52,1.62-4.93,4.41-4.93s3.93,1.89,3.93,4v.19h-6.26v.23c0,2.71.88,4.64,3.13,4.64,1.64,0,2.16-.59,3-1.87l.38.25A4.34,4.34,0,0,1,152,83.05Zm-.25-9.53c-1.32,0-2.25,1.3-2.31,3.28l4.22,0C153.61,75.24,153.3,73.52,151.7,73.52Z"/><path class="cls-2" d="M160.69,83.09a4.2,4.2,0,0,1-2.5-.84l-.21.65h-.69l-.1-3.25h.44c.23,1,1.49,2.94,3.17,2.94,1.47,0,2-.78,2-1.81s-.82-1.53-2.46-2c-1.34-.4-2.86-1.18-2.86-3,0-1.55,1.2-2.75,3.15-2.75a4.11,4.11,0,0,1,2.18.54L163,73h.65l.15,2.9h-.44a2.89,2.89,0,0,0-2.77-2.39c-1.28,0-1.64.73-1.64,1.51,0,1.2.71,1.43,2.46,2s2.86,1.34,2.86,3.07S162.67,83.09,160.69,83.09Z"/></g></g></svg>