<?xml version="1.0" encoding="utf-8"?>
<!-- Generator: Adobe Illustrator 19.1.0, SVG Export Plug-In . SVG Version: 6.00 Build 0)  -->
<svg version="1.1" id="Layer_1" xmlns="http://www.w3.org/2000/svg" xmlns:xlink="http://www.w3.org/1999/xlink" x="0px" y="0px"
	 viewBox="-286 265.9 217 83.1" style="enable-background:new -286 265.9 217 83.1;" xml:space="preserve">
<style type="text/css">
	.st0{fill:#FFFFFF;}
</style>
<title>LogoLockup-FS</title>
<g id="Layer_2">
	<g id="Logos">
		<path class="st0" d="M-285,281.3l1.9-2.2c1.5,1.5,3.5,2.3,5.6,2.3c1.9,0,3.2-0.9,3.2-2.2v0c0-1.3-0.7-2-4-2.7
			c-3.8-0.9-5.9-2-5.9-5.3v-0.1c0-3,2.5-5.1,6-5.1c2.3,0,4.6,0.7,6.5,2.2l-1.7,2.4c-1.4-1.1-3.1-1.8-4.8-1.8c-1.8,0-2.9,0.9-2.9,2.1
			l0,0c0,1.4,0.8,2,4.2,2.8c3.8,0.9,5.7,2.3,5.7,5.2l0,0c0,3.3-2.6,5.3-6.4,5.3C-280.3,284.1-282.9,283.1-285,281.3"/>
		<path class="st0" d="M-256.2,266h2.9l7.8,17.9h-3.3l-1.8-4.3h-8.4l-1.8,4.3h-3.2L-256.2,266z M-251.7,276.9l-3.1-7.1l-3,7.1
			L-251.7,276.9z"/>
		<path class="st0" d="M-238.3,266.2h7c4.1,0,6.8,2.4,6.8,5.9v0c0,4-3.2,6.1-7.1,6.1h-3.5v5.7h-3.1V266.2z M-231.6,275.4
			c2.4,0,3.8-1.3,3.8-3.2v-0.1c0-2.1-1.5-3.2-3.8-3.2h-3.6v6.4H-231.6z"/>
		<rect x="-215.7" y="266.2" class="st0" width="3.1" height="17.8"/>
		<polygon class="st0" points="-202.6,266.2 -189.4,266.2 -189.4,269 -199.5,269 -199.5,273.6 -190.6,273.6 -190.6,276.4 
			-199.5,276.4 -199.5,281.1 -189.3,281.1 -189.3,283.9 -202.6,283.9 		"/>
		<polygon class="st0" points="-179.8,266.2 -176.9,266.2 -167.4,278.5 -167.4,266.2 -164.3,266.2 -164.3,283.9 -166.9,283.9 
			-176.7,271.3 -176.7,283.9 -179.8,283.9 		"/>
		<polygon class="st0" points="-150.1,269.1 -155.7,269.1 -155.7,266.2 -141.3,266.2 -141.3,269.1 -146.9,269.1 -146.9,283.9 
			-150.1,283.9 		"/>
		<path class="st0" d="M-284.8,294.9h7.9c1.9-0.1,3.7,0.5,5.1,1.8c1,1,1.5,2.4,1.5,3.8v0c0.1,2.6-1.7,4.9-4.2,5.4l4.8,6.7h-3.7
			l-4.4-6.2h-3.9v6.2h-3.1V294.9z M-277.1,303.7c2.2,0,3.6-1.2,3.6-3v0c0-1.9-1.4-2.9-3.7-2.9h-4.5v6L-277.1,303.7z"/>
		<path class="st0" d="M-256.3,294.8h2.9l7.8,17.9h-3.3l-1.8-4.3h-8.4l-1.8,4.3h-3.2L-256.3,294.8z M-251.8,305.6l-3.1-7.1l-3,7.1
			H-251.8z"/>
		<polygon class="st0" points="-238.3,310.4 -227.8,297.7 -238,297.7 -238,294.9 -223.8,294.9 -223.8,297.2 -234.3,309.9 
			-223.8,309.9 -223.8,312.7 -238.3,312.7 		"/>
		<path class="st0" d="M-216.4,303.9L-216.4,303.9c0-5.1,4.1-9.3,9.3-9.3c5.1,0,9.3,4.1,9.3,9.3v0.1c0,5.1-4.2,9.3-9.3,9.3
			S-216.4,309-216.4,303.9 M-201,303.9L-201,303.9c0.1-3.4-2.5-6.2-5.9-6.3c0,0-0.1,0-0.1,0c-3.3,0-6,2.7-6,6c0,0.1,0,0.2,0,0.3v0.1
			c-0.1,3.4,2.5,6.2,5.9,6.3c0,0,0.1,0,0.1,0c3.3,0,6-2.7,6-6C-201,304.1-201,304-201,303.9"/>
		<path class="st0" d="M-190,294.9h7.9c1.9-0.1,3.7,0.6,5.1,1.8c1,1,1.5,2.4,1.5,3.8v0.1c0.1,2.6-1.7,4.9-4.2,5.4l4.8,6.7h-3.7
			l-4.4-6.2h-3.9v6.2h-3.1V294.9z M-182.3,303.7c2.2,0,3.6-1.2,3.6-3v0c0-1.9-1.4-2.9-3.7-2.9h-4.6v6L-182.3,303.7z"/>
		<polygon class="st0" points="-165.6,294.9 -152.4,294.9 -152.4,297.8 -162.4,297.8 -162.4,302.6 -153.5,302.6 -153.5,305.5 
			-162.4,305.5 -162.4,312.7 -165.6,312.7 		"/>
		<rect x="-143.1" y="294.9" class="st0" width="3.1" height="17.8"/>
		<path class="st0" d="M-131.2,310.1l1.9-2.2c1.5,1.5,3.5,2.3,5.6,2.3c1.9,0,3.1-0.9,3.1-2.2v-0.1c0-1.3-0.7-2-4-2.7
			c-3.8-0.9-5.9-2-5.9-5.3v-0.1c0-3,2.5-5.1,6.1-5.1c2.3,0,4.6,0.7,6.4,2.2l-1.7,2.4c-1.4-1.1-3.1-1.8-4.8-1.8
			c-1.8,0-2.9,0.9-2.9,2.1l0,0c0,1.4,0.8,2,4.2,2.8c3.8,0.9,5.7,2.3,5.7,5.2v0c0,3.3-2.6,5.3-6.4,5.3
			C-126.5,312.9-129.1,311.9-131.2,310.1"/>
		<polygon class="st0" points="-108.5,294.9 -105.4,294.9 -105.4,302.3 -96.9,302.3 -96.9,294.9 -93.8,294.9 -93.8,312.7 
			-96.9,312.7 -96.9,305.2 -105.4,305.2 -105.4,312.7 -108.5,312.7 		"/>
		<rect x="-84.5" y="312.7" class="st0" width="15.5" height="3.1"/>
		<path class="st0" d="M-274.9,337.8c-0.2-0.9-1.3-2.6-2.2-2.8c-0.6-0.1-1.2-0.1-1.7-0.1h-2.6v6.1h1.9c0.7,0,1.4-0.2,1.9-0.7
			c0.4-0.6,0.6-1.2,0.7-1.9h0.6v5.9h-0.6c-0.1-0.7-0.3-1.4-0.7-2.1c-0.5-0.5-1.2-0.7-1.9-0.7h-1.9v5.3c0,0.4,0.2,0.8,0.6,1
			c0.5,0.2,1.1,0.3,1.6,0.3v0.5h-6.8v-0.5c0.6,0,1.1-0.1,1.7-0.2c0.4-0.2,0.7-0.6,0.6-1v-10.8c0-0.4-0.2-0.8-0.6-1
			c-0.5-0.2-1.1-0.3-1.7-0.4v-0.5h11.7v3.4H-274.9z"/>
		<path class="st0" d="M-273.3,348.7v-0.4c0.3,0,0.6-0.1,0.9-0.1c0.4-0.2,0.6-0.5,0.6-0.9v-6c0-0.4-0.2-0.8-0.6-1
			c-0.4-0.2-0.8-0.4-1.2-0.4v-0.4l3.6-0.3l0.1,0.1v7.8c0,0.4,0.2,0.8,0.6,1c0.3,0.1,0.6,0.2,0.9,0.2v0.4L-273.3,348.7z M-271,336.3
			c-0.7,0-1.3-0.6-1.3-1.3c0-0.7,0.6-1.3,1.3-1.3c0.7,0,1.3,0.5,1.3,1.2c0,0,0,0,0,0C-269.7,335.6-270.3,336.2-271,336.3z"/>
		<path class="st0" d="M-260.9,348.7v-0.4c0.3,0,0.7-0.1,1-0.1c0.4-0.1,0.6-0.5,0.6-0.9v-5.1c0-1.5-0.9-2.2-1.7-2.2
			c-1.1,0-2.1,0.5-2.6,1.5v5.7c0,0.4,0.2,0.8,0.6,0.9c0.3,0.1,0.7,0.2,1,0.2v0.4h-5v-0.4c0.3,0,0.6-0.1,0.9-0.1
			c0.4-0.1,0.6-0.5,0.6-0.9v-6c0-0.4-0.2-0.8-0.6-1.1c-0.3-0.2-0.6-0.3-1-0.3v-0.4l3.4-0.2l0.1,0.1v1.4l0,0c0.8-1.1,2-1.8,3.4-1.8
			c2,0,2.9,1.3,2.9,3.3v4.9c0,0.4,0.2,0.8,0.5,0.9c0.3,0.1,0.6,0.2,0.9,0.2v0.4L-260.9,348.7z"/>
		<path class="st0" d="M-247.2,348.9c-0.9,0-1.6-0.6-1.8-1.4h-0.1c-0.8,0.9-1.9,1.5-3.1,1.4c-1.2,0.1-2.3-0.8-2.4-2
			c0-0.1,0-0.2,0-0.3c-0.1-1.3,0.8-2.4,2.1-2.7c1.2-0.4,2.4-0.8,3.5-1.3v-1.2c0-0.4-0.1-2.1-1.8-2.1c-0.5,0-1,0.3-1.3,0.7
			c0,0.3,0.2,0.8,0.2,1.2c0,0.5-0.5,0.9-1.2,0.9c-0.8,0-0.9-0.5-0.9-1.1c0-1.3,1.8-2.3,3.4-2.3c2.1,0,3.6,0.3,3.6,3.1
			c0,1.8-0.1,4-0.1,4.7c0,0.3,0.3,1.1,1,1.1c0.7,0,0.8-0.8,0.8-1.6h0.4C-245.1,348.2-245.9,348.9-247.2,348.9z M-252.6,346.4
			c0,1.1,0.5,1.7,1.4,1.7c0.8,0,1.6-0.4,2.1-1.1l0.1-3.7C-251.1,344-252.6,344.5-252.6,346.4L-252.6,346.4z"/>
		<path class="st0" d="M-237.9,348.7v-0.4c0.3,0,0.7-0.1,1-0.1c0.4-0.1,0.6-0.5,0.6-0.9v-5.1c0-1.5-0.8-2.2-1.7-2.2
			c-1.1,0-2.1,0.5-2.6,1.5v5.7c0,0.4,0.2,0.8,0.6,0.9c0.3,0.1,0.7,0.2,1,0.2v0.4h-5v-0.4c0.3,0,0.6-0.1,0.9-0.2
			c0.4-0.1,0.6-0.5,0.6-0.9v-6c0-0.4-0.2-0.8-0.6-1.1c-0.3-0.2-0.6-0.3-1-0.3v-0.4l3.4-0.2l0.2,0.1v1.4l0,0c0.8-1.1,2.1-1.7,3.4-1.8
			c2,0,2.9,1.3,2.9,3.3v4.9c0,0.4,0.2,0.8,0.6,0.9c0.3,0.1,0.6,0.2,0.9,0.2v0.4L-237.9,348.7z"/>
		<path class="st0" d="M-227.5,349c-3,0-4.6-2.1-4.6-5c-0.1-2.6,1.8-4.8,4.5-5c0.1,0,0.1,0,0.2,0c2.2,0,3.2,1.1,3.2,2.4
			c0.1,0.5-0.3,1.1-0.8,1.2c-0.1,0-0.2,0-0.3,0c-0.6,0.1-1.1-0.4-1.2-1c0,0,0,0,0-0.1c0-0.9,0.3-0.9,0.3-1.3
			c-0.1-0.6-0.5-0.8-1.3-0.8c-1.2,0-2.5,1.1-2.5,4.3c0,2.5,1.1,4.3,2.9,4.3c1.3,0.1,2.5-0.7,3-1.9l0.4,0.3
			C-224.4,347.9-225.9,348.9-227.5,349z"/>
		<path class="st0" d="M-222.9,348.7v-0.4c0.3,0,0.6-0.1,0.9-0.1c0.4-0.2,0.6-0.5,0.6-0.9v-6c0-0.4-0.2-0.8-0.6-1
			c-0.4-0.2-0.8-0.4-1.2-0.4v-0.4l3.6-0.2l0.2,0.2v7.8c0,0.4,0.2,0.8,0.6,1c0.3,0.1,0.6,0.2,0.9,0.2v0.4L-222.9,348.7z
			 M-220.6,336.3c-0.7,0-1.3-0.6-1.3-1.3c0-0.7,0.6-1.3,1.3-1.3c0.7,0,1.3,0.5,1.3,1.2c0,0,0,0,0,0.1
			C-219.3,335.6-219.8,336.2-220.6,336.3z"/>
		<path class="st0" d="M-209.3,348.9c-0.9,0.1-1.7-0.5-1.9-1.4h-0.1c-0.8,0.9-1.9,1.5-3.1,1.5c-1.2,0.1-2.3-0.8-2.4-2
			c0-0.1,0-0.2,0-0.3c-0.1-1.3,0.8-2.4,2.1-2.7c1.2-0.4,2.4-0.8,3.5-1.3v-1.2c0-0.4-0.1-2.1-1.8-2.1c-0.5,0-1,0.3-1.3,0.7
			c0,0.3,0.2,0.8,0.2,1.2c0,0.5-0.5,0.9-1.2,0.9s-0.9-0.5-0.9-1.1c0-1.3,1.8-2.3,3.4-2.3c2.1,0,3.6,0.3,3.6,3.1c0,1.8-0.1,4-0.1,4.7
			c0,0.3,0.3,1.1,1,1.1c0.7,0,0.8-0.8,0.8-1.6h0.5C-207.2,348.2-208,348.9-209.3,348.9z M-214.7,346.4c0,1.1,0.5,1.7,1.4,1.7
			c0.8,0,1.6-0.4,2.1-1.1l0.1-3.7C-213.2,344-214.7,344.5-214.7,346.4L-214.7,346.4z"/>
		<path class="st0" d="M-206.2,348.7v-0.4c0.3,0,0.6-0.1,0.9-0.1c0.4-0.1,0.6-0.5,0.6-0.9v-11.9c0-0.5-0.2-0.9-0.6-1.2
			c-0.5-0.2-1-0.4-1.5-0.4v-0.4l3.8-0.2l0.1,0.1v13.9c0,0.4,0.2,0.8,0.6,1c0.3,0.1,0.6,0.2,0.9,0.2v0.4L-206.2,348.7z"/>
		<path class="st0" d="M-189.6,349c-1.2,0-2.4-0.3-3.4-1.1l-0.7,1h-0.7l-0.2-4.9h0.5c0.9,2.2,2.2,4.3,4.8,4.3
			c1.3,0.2,2.5-0.8,2.7-2.1c0-0.2,0-0.4,0-0.6c0-1.3-0.8-2.4-2.1-2.8c-1.2-0.5-1.8-0.7-3-1.2c-1.6-0.6-2.6-2.1-2.5-3.7
			c0.1-2.2,2-3.9,4.2-3.8c0,0,0,0,0,0c1.1,0,2.1,0.4,3,1l0.7-1h0.7l0.1,4.8h-0.5c-0.8-2.4-1.8-4.2-4.6-4.2c-1.1,0-2,1-2,2.1
			c0,0,0,0,0,0c0,1.2,0.7,2.2,1.9,2.7c1,0.6,1.9,0.8,2.9,1.2c1.8,0.8,3,1.7,3,3.9c0,2.4-2,4.4-4.4,4.4
			C-189.3,349-189.5,349-189.6,349z"/>
		<path class="st0" d="M-178.5,349c-3.2,0-4.6-2.3-4.6-5.1c0-2.5,1.6-4.9,4.4-4.9s3.9,1.9,3.9,4v0.2h-6.2v0.2c0,2.7,0.9,4.6,3.1,4.6
			c1.6,0,2.2-0.6,3-1.9l0.4,0.2C-175.2,348-176.8,349-178.5,349z M-178.7,339.4c-1.3,0-2.2,1.3-2.3,3.3h4.2
			C-176.8,341.1-177.1,339.4-178.7,339.4z"/>
		<path class="st0" d="M-167.2,341.6c-0.7,0-1.1-0.3-1.1-1c0-0.2,0.1-0.4,0.1-0.6c-0.9,0.1-1.7,0.6-2.1,1.4v5.8
			c0,0.4,0.2,0.8,0.6,0.9c0.4,0.1,0.9,0.2,1.4,0.2v0.4h-5.3v-0.4c0.3,0,0.6-0.1,0.9-0.1c0.4-0.1,0.6-0.5,0.6-0.9v-6
			c0-0.4-0.2-0.8-0.6-1.1c-0.3-0.2-0.6-0.3-1-0.3v-0.4l3.4-0.2l0.1,0.2v1.4l0,0c0.6-1,1.7-1.6,2.8-1.7c0.7,0,1.3,0.6,1.3,1.3
			C-166.1,341-166.5,341.6-167.2,341.6z"/>
		<path class="st0" d="M-156.5,340.8c-0.9,1.9-1.5,3.6-2.5,5.8c-0.3,0.7-0.6,1.5-0.8,2.3h-0.7c-1.5-3.7-1.9-4.8-3.3-8.2
			c-0.3-0.6-0.9-0.9-1.6-1v-0.4h4.7v0.5c-0.5,0-1.2,0.1-1.2,0.4c0,0.2,0.1,0.3,0.2,0.4c0.4,1.1,1.4,3.6,2.3,5.8h0.1
			c0.8-1.9,1.4-3.3,2.2-5.4c0.1-0.2,0.1-0.4,0.1-0.6c0-0.4-1.2-0.7-1.6-0.8v-0.4h3.7v0.4C-155.6,339.8-156.1,340.2-156.5,340.8z"/>
		<path class="st0" d="M-153.8,348.7v-0.4c0.3,0,0.6-0.1,0.9-0.1c0.4-0.2,0.6-0.5,0.6-0.9v-6c0-0.4-0.2-0.8-0.6-1
			c-0.4-0.2-0.8-0.4-1.2-0.4v-0.4l3.6-0.2l0.1,0.2v7.8c0,0.4,0.2,0.8,0.6,1c0.3,0.1,0.6,0.2,0.9,0.2v0.4L-153.8,348.7z
			 M-151.5,336.3c-0.7,0-1.3-0.6-1.3-1.3c0-0.7,0.6-1.3,1.3-1.3c0.7,0,1.3,0.5,1.3,1.2c0,0,0,0,0,0.1
			C-150.2,335.6-150.8,336.2-151.5,336.3z"/>
		<path class="st0" d="M-143.5,349c-3,0-4.6-2.1-4.6-5c-0.1-2.6,1.8-4.8,4.5-5c0.1,0,0.1,0,0.2,0c2.2,0,3.2,1.1,3.2,2.4
			c0.1,0.5-0.3,1.1-0.8,1.2c-0.1,0-0.2,0-0.3,0c-0.6,0.1-1.1-0.4-1.2-1c0,0,0,0,0-0.1c0-0.9,0.3-0.9,0.3-1.3
			c-0.1-0.6-0.5-0.8-1.3-0.8c-1.2,0-2.5,1.1-2.5,4.3c0,2.5,1.1,4.3,2.9,4.3c1.3,0.1,2.5-0.7,3-1.9l0.4,0.3
			C-140.4,347.9-141.9,348.9-143.5,349z"/>
		<path class="st0" d="M-134,349c-3.2,0-4.6-2.3-4.6-5.1c0-2.5,1.6-4.9,4.4-4.9s3.9,1.9,3.9,4v0.2h-6.3v0.2c0,2.7,0.9,4.6,3.1,4.6
			c1.6,0,2.2-0.6,3-1.9l0.4,0.2C-130.7,347.9-132.3,349-134,349z M-134.2,339.4c-1.3,0-2.2,1.3-2.3,3.3h4.2
			C-132.4,341.1-132.7,339.4-134.2,339.4L-134.2,339.4z"/>
		<path class="st0" d="M-125.3,349c-0.9,0-1.8-0.3-2.5-0.8l-0.2,0.6h-0.7l-0.1-3.2h0.4c0.2,1,1.5,2.9,3.2,2.9c1.5,0,2-0.8,2-1.8
			s-0.8-1.5-2.5-2c-1.3-0.4-2.9-1.2-2.9-3c0-1.5,1.2-2.8,3.1-2.8c0.8,0,1.5,0.2,2.2,0.5l0.2-0.6h0.6l0.1,2.9h-0.4
			c-0.2-1.4-1.4-2.4-2.8-2.4c-1.3,0-1.6,0.7-1.6,1.5c0,1.2,0.7,1.4,2.5,2c1.8,0.6,2.9,1.3,2.9,3.1C-121.7,347.7-123.3,349-125.3,349
			z"/>
	</g>
</g>
</svg>
